PathFileType	4	(X/Y/Z)	Patient4_TMGait_0pt8_01_left_34.trc.trc
DataRate	CameraRate	NumFrames	NumMarkers	Units	OrigDataRate	OrigDataStartFrame	OrigNumFrames
89.743589743590	89.743589743590	4	33	mm	89.743589743590	36	       141
Frame#	Time	Sacral			L.Shoulder			Chest			R.Shoulder			Neck			R.ASIS			L.ASIS			R.Thigh.Superior			R.Thigh.Lateral			R.Thigh.Inferior			R.Patella			L.Thigh.Superior			L.Thigh.Lateral			L.Thigh.Inferior			L.Patella			L.Shank.Superior			L.Shank.Lateral			L.Shank.Inferior			R.Shank.Superior			R.Shank.Lateral			R.Shank.Inferior			R.Heel			R.Midfoot.Superior			R.Midfoot.Lateral			R.Toe			L.Heel			L.Midfoot.Lateral			L.Midfoot.Superior			L.Toe			L.Elbow			L.Wrist			R.Elbow			R.Wrist			
		X1	Y1	Z1	X2	Y2	Z2	X3	Y3	Z3	X4	Y4	Z4	X5	Y5	Z5	X6	Y6	Z6	X7	Y7	Z7	X8	Y8	Z8	X9	Y9	Z9	X10	Y10	Z10	X11	Y11	Z11	X12	Y12	Z12	X13	Y13	Z13	X14	Y14	Z14	X15	Y15	Z15	X16	Y16	Z16	X17	Y17	Z17	X18	Y18	Z18	X19	Y19	Z19	X20	Y20	Z20	X21	Y21	Z21	X22	Y22	Z22	X23	Y23	Z23	X24	Y24	Z24	X25	Y25	Z25	X26	Y26	Z26	X27	Y27	Z27	X28	Y28	Z28	X29	Y29	Z29	X30	Y30	Z30	X31	Y31	Z31	X32	Y32	Z32	X33	Y33	Z33	

36	37.890000000000	877.488698805389	999.997562060969	481.369941190997	1032.959397097129	1422.994232804687	292.827513327671	1153.610896307039	1354.972872339845	442.214969680445	1087.981198281651	1430.327238979872	622.943188971160	1033.288381211838	1483.589565185869	450.388954744030	1103.216695726497	926.714626298670	587.628314645947	1082.441640508428	947.832019990107	315.217098666160	1099.966317388504	711.343696307070	566.353314073968	995.947064339489	618.406318624402	628.936579959188	1061.156959291522	547.655555388416	553.654022995974	1035.258965101516	447.142605648375	567.899621090230	1158.807485661754	764.585206873447	349.839649940992	1099.626457769043	635.668733332517	280.137673396504	1200.650886489342	574.355434233822	341.418772667839	1216.355080396462	502.561219754036	345.696943854825	1193.466619374985	426.036333456260	337.544737951660	1111.025187747207	305.666263574167	287.314244565339	1175.286592039672	198.151027166706	353.724378987776	963.570602344362	381.316971427359	573.889116854224	848.773024002393	328.186771839159	635.052068230687	843.549290065578	220.258447657227	579.346835814707	647.496040352391	118.368107246763	552.616218938141	826.698180510431	108.836300832614	589.092322912835	722.510392365659	78.820923186953	624.206889638159	918.260176330650	34.975437267628	612.428197062602	1059.973063169810	38.395707820393	400.495454728078	1127.989823727671	36.378973063419	314.312167553498	1211.092613667741	98.837342189524	336.128985173086	1337.724700229163	50.628595907326	298.428156935584	880.711876197340	1107.494812062232	203.362379246794	804.957525472003	859.254003434639	224.512941493919	1259.279206375987	1140.523208120857	726.179248018675	1421.910854901034	1310.260118364304	650.187356470454	
37	37.901142857143	877.008975449321	1001.312151477784	478.434755412887	1033.550165482753	1424.457735430579	290.857762689197	1153.314609123632	1356.664642148960	441.011655594774	1086.479571363818	1431.990672882689	621.343543241311	1032.846211732829	1485.072306344031	448.451971878660	1102.503139895293	927.992040115015	585.157523565934	1082.748696468814	949.708861462380	313.079484580306	1104.287202231448	713.296239329970	564.023675106846	1002.973533818627	618.064264494474	626.808658881197	1070.735154858737	548.355859144495	552.044588424321	1045.976613445058	445.900843301935	567.580221295847	1158.200414716716	764.310626658862	345.577679403947	1095.609830682120	635.496636284548	278.482473141265	1196.489298614843	573.347755631098	338.983175030231	1211.371012925285	501.908908109064	344.384448389760	1187.943351901645	425.439498298106	336.507629193025	1104.500550861670	305.687511156410	286.757161177846	1167.610152948209	197.826473463609	353.427516535115	971.549224879021	381.404093855252	573.021552317984	854.287686335974	333.044216306780	633.593753353688	845.660504461565	224.925847083446	578.768215208665	646.442759355284	132.600049812957	551.054192754520	824.044620291066	112.239141640053	588.983576479591	718.211525717918	88.621390370523	623.077651470601	909.630034957598	33.812257715185	612.526311818831	1051.112801487477	38.349079932682	400.368432513639	1119.082968426938	36.357184516446	314.155127335062	1202.156837163453	98.847050300035	336.015868114808	1328.773420385911	50.852263400257	298.167065770566	887.943262169619	1105.492393746243	198.667468832282	817.994786707118	855.430505575056	218.557358655704	1250.139473073395	1137.045767274085	726.955713718885	1416.512637202355	1302.981084557224	650.521232719121	
38	37.912285714286	876.286624457022	1002.645277800654	475.555157546596	1034.137452347847	1425.991599816624	289.010311172705	1152.945338799182	1358.325033682649	439.929647295482	1084.855886551055	1433.543513477119	619.873086941015	1032.345539524428	1486.523574191456	446.664891826396	1101.608694371474	929.277100372969	582.765773616892	1082.860795339588	951.519888455291	310.978367622052	1108.976327633927	715.552358786588	561.848409399420	1010.619555891794	617.884757296717	624.728616676321	1081.003812877237	549.459646855891	550.404105767535	1057.605454538934	445.143091016091	566.982983618328	1157.219172443733	763.781173262483	341.446270776027	1091.251335833978	635.276371769934	276.991717996489	1191.891159919143	572.252587253558	336.838226332448	1205.894263323592	501.171759330043	343.260589881637	1181.951769431779	424.818383128755	335.574123401124	1097.566842649570	305.627145029195	286.381092852344	1159.698106860551	197.465450197731	353.213074315707	980.630837512295	381.807279604518	571.915425606097	861.141860938137	338.255334701656	631.997823579515	848.993662554348	230.167647469024	577.999777808408	647.150305185288	148.121898163184	549.166216755108	822.351889219101	116.365904369855	588.777223976177	715.122696753739	99.673253614388	621.725686453596	901.313802137943	32.523764001806	612.697504932721	1042.148076228006	38.271440809716	400.297016964250	1110.079631269136	36.287986272827	314.064141588779	1193.161861399530	98.771470149324	335.980192729905	1319.761163734440	50.895268537608	297.993067416745	895.405905919347	1103.677709814718	193.907446742521	832.310654939658	851.668786104500	212.461873067675	1240.081977303726	1133.309264488643	727.872170182142	1411.130513696924	1294.434264163667	651.150577655020	
39	37.923428571429	875.318142459229	1003.941803148996	472.761466210827	1034.743265629439	1427.532282109122	287.283123650710	1152.511515785922	1359.886229213324	438.977368804980	1083.120567177058	1434.932592792678	618.537441505325	1031.804620891749	1487.902216940934	445.022422219524	1100.529526537881	930.531375345476	580.502870670710	1082.765950464369	953.209779870995	308.947044727624	1113.936284225899	718.127724128123	559.788707238249	1018.825733956310	617.928772994776	622.686843661699	1091.808296469469	551.031867440239	548.663270070507	1070.019722356981	444.948213448985	566.023380473876	1155.844310069909	763.053277085722	337.658514309136	1086.764481115011	635.098170660730	275.620894659599	1186.962431585433	571.138635426281	335.070273312581	1200.030214865783	500.376283833566	342.332490003851	1175.601216431915	424.189429612318	334.752344871238	1090.360066466585	305.509595153052	286.098571302151	1151.621627965137	197.083323810361	353.063571565554	990.721153642282	382.573119017379	570.525415205988	869.277084845530	343.770669937525	630.244191489661	853.567657905599	235.928122236550	577.021470994236	649.719118606861	164.613957407171	547.001530020533	821.748354218170	121.213334610809	588.446640847803	713.438405557266	111.773324148904	620.169394793570	893.569613879607	31.249611094581	612.891906592952	1033.114617958818	38.180222562518	400.256698892360	1101.018202637437	36.189793513294	314.017061087067	1184.143236364096	98.630025997029	336.001477776200	1310.720476860144	50.783574052180	297.894048601765	903.061251047685	1102.046991463779	189.104549513964	847.838932941298	848.056160464931	206.279476237465	1229.155267000214	1129.348400992262	728.850347552918	1405.756726174641	1284.585958294847	652.073357220978	
